<svg width="128" height="128" viewBox="0 0 128 128" fill="none" xmlns="http://www.w3.org/2000/svg">
<mask id="mask0_4759_10229" style="mask-type:luminance" maskUnits="userSpaceOnUse" x="7" y="8" width="114" height="113">
<path d="M120.21 8H7V120.13H120.21V8Z" fill="white"/>
</mask>
<g mask="url(#mask0_4759_10229)">
<path d="M68.46 13.8101C40.57 13.8101 17.96 36.4201 17.96 64.3101C17.96 92.2001 40.57 114.81 68.46 114.81C96.35 114.81 118.96 92.2001 118.96 64.3101C118.96 36.4201 96.35 13.8101 68.46 13.8101ZM68.46 99.6101C48.96 99.6101 33.15 83.8001 33.15 64.3001C33.15 44.8001 48.96 28.9901 68.46 28.9901C87.96 28.9901 103.77 44.8001 103.77 64.3001C103.77 83.8001 87.96 99.6101 68.46 99.6101Z" fill="#153385" stroke="#153385" stroke-miterlimit="10"/>
<path d="M66.44 82.5601C76.52 82.5601 84.69 74.3901 84.69 64.3101C84.69 54.2301 76.52 46.0601 66.44 46.0601C56.36 46.0601 48.19 54.2301 48.19 64.3101C48.19 74.3901 56.36 82.5601 66.44 82.5601Z" fill="#153385" stroke="#153385" stroke-miterlimit="10"/>
<path d="M63.9 13.8101C36.01 13.8101 13.4 36.4201 13.4 64.3001C13.4 92.1801 36.01 114.8 63.9 114.8C91.79 114.8 114.4 92.1901 114.4 64.3001C114.4 36.4101 91.79 13.8101 63.9 13.8101ZM63.9 99.6101C44.4 99.6101 28.59 83.8001 28.59 64.3001C28.59 44.8001 44.4 28.9901 63.9 28.9901C83.4 28.9901 99.21 44.8001 99.21 64.3001C99.21 83.8001 83.4 99.6101 63.9 99.6101Z" fill="#F5F7FA" stroke="#153385" stroke-miterlimit="10"/>
<path d="M63.9 82.5601C73.98 82.5601 82.15 74.3901 82.15 64.3101C82.15 54.2301 73.98 46.0601 63.9 46.0601C53.82 46.0601 45.65 54.2301 45.65 64.3101C45.65 74.3901 53.82 82.5601 63.9 82.5601Z" fill="#0B64DD" stroke="#153385" stroke-miterlimit="10"/>
<path d="M63.9 8V35.34" stroke="#153385" stroke-miterlimit="10"/>
<path d="M63.9 92.78V120.12" stroke="#153385" stroke-miterlimit="10"/>
<path d="M120.21 63.8601H92.87" stroke="#153385" stroke-miterlimit="10"/>
<path d="M34.34 63.8601H7" stroke="#153385" stroke-miterlimit="10"/>
<path d="M50.94 64.4C50.94 64.4 62.42 48 76.86 64.4C76.86 64.4 65.71 79.82 50.94 64.4Z" fill="white"/>
<path d="M63.61 70.6899C67.14 70.6899 70.01 67.8199 70.01 64.2899C70.01 60.7599 67.15 57.8899 63.61 57.8899C60.07 57.8899 57.21 60.7499 57.21 64.2899C57.21 67.8299 60.07 70.6899 63.61 70.6899Z" fill="#153385"/>
</g>
</svg>
