<svg xmlns="http://www.w3.org/2000/svg" fill="none" viewBox="0 0 128 128"><path fill="#153385" stroke="#153385" stroke-miterlimit="10" d="M93.77 20.5H11.48a4.98 4.98 0 0 0-4.98 4.98v48.9a4.98 4.98 0 0 0 4.98 4.98h82.29a4.98 4.98 0 0 0 4.98-4.98v-48.9a4.98 4.98 0 0 0-4.98-4.98Z"/><path fill="#153385" stroke="#153385" stroke-miterlimit="10" d="M115.55 63.7H44.48a4.98 4.98 0 0 0-4.98 4.98v39.71a4.98 4.98 0 0 0 4.98 4.98h71.07a4.98 4.98 0 0 0 4.98-4.98V68.68a4.98 4.98 0 0 0-4.98-4.98Z"/><path fill="#F5F7FA" stroke="#153385" stroke-miterlimit="10" d="M90.8 20.5H11.48a4.98 4.98 0 0 0-4.98 4.98v46.37a4.98 4.98 0 0 0 4.98 4.98H90.8a4.98 4.98 0 0 0 4.98-4.98V25.48a4.98 4.98 0 0 0-4.98-4.98Z"/><path stroke="#153385" stroke-miterlimit="10" d="M23.61 59.03h53.16m-43.13 8.72h37.28"/><path fill="#48EFCF" stroke="#153385" stroke-miterlimit="10" d="M82.32 27.65H19.95a4.09 4.09 0 0 0-4.09 4.09v7.37a4.09 4.09 0 0 0 4.09 4.09h62.37a4.09 4.09 0 0 0 4.09-4.09v-7.37a4.09 4.09 0 0 0-4.09-4.09Z"/><path stroke="#153385" stroke-miterlimit="10" d="M15.86 50.31h70.55M22.43 35.43h18.84m2.44 0h5.69m2.29 0h18.84m2.45 0h5.68"/><path fill="#fff" stroke="#153385" stroke-miterlimit="10" d="M112.85 63.27H44.48a4.98 4.98 0 0 0-4.98 4.98v38.06a4.98 4.98 0 0 0 4.98 4.98h68.37a4.98 4.98 0 0 0 4.98-4.98V68.25a4.98 4.98 0 0 0-4.98-4.98Z"/><path fill="#0B64DD" d="M54.72 82.16a4.37 4.37 0 1 0 0-8.74 4.37 4.37 0 0 0 0 8.74Zm0 18.68a4.37 4.37 0 1 0 0-8.74 4.37 4.37 0 0 0 0 8.74Z"/><path stroke="#153385" stroke-miterlimit="10" d="M64.44 77.79h43.62M64.44 96.76h43.62"/></svg>
