<svg xmlns="http://www.w3.org/2000/svg" width="16" height="16" viewBox="0 0 16 16" fill="none">
  <path d="M5 1C6.10457 1 7 1.89543 7 3C7 3.93162 6.3622 4.71129 5.5 4.93359V11.0654C6.36232 11.2877 7 12.0683 7 13C7 14.1046 6.10457 15 5 15C3.89543 15 3 14.1046 3 13C3 12.0683 3.63768 11.2877 4.5 11.0654V4.93359C3.6378 4.71129 3 3.93162 3 3C3 1.89543 3.89543 1 5 1ZM11 1C12.1046 1 13 1.89543 13 3C13 3.93162 12.3622 4.71129 11.5 4.93359V11.0654C12.3623 11.2877 13 12.0683 13 13C13 14.1046 12.1046 15 11 15C9.89543 15 9 14.1046 9 13C9 12.0683 9.63768 11.2877 10.5 11.0654V4.93359C9.6378 4.71129 9 3.93162 9 3C9 1.89543 9.89543 1 11 1ZM5 12C4.44772 12 4 12.4477 4 13C4 13.5523 4.44772 14 5 14C5.55228 14 6 13.5523 6 13C6 12.4477 5.55228 12 5 12ZM11 12C10.4477 12 10 12.4477 10 13C10 13.5523 10.4477 14 11 14C11.5523 14 12 13.5523 12 13C12 12.4477 11.5523 12 11 12ZM5 2C4.44772 2 4 2.44772 4 3C4 3.55228 4.44772 4 5 4C5.55228 4 6 3.55228 6 3C6 2.44772 5.55228 2 5 2ZM11 2C10.4477 2 10 2.44772 10 3C10 3.55228 10.4477 4 11 4C11.5523 4 12 3.55228 12 3C12 2.44772 11.5523 2 11 2Z" fill="currentColor"/>
</svg>
