<svg width="61" height="50" viewBox="0 0 61 50" fill="none" xmlns="http://www.w3.org/2000/svg">
<path d="M40.2721 3.97852H3.979V25.8276H40.2721V3.97852Z" stroke="#101C3F" stroke-width="0.516129" stroke-miterlimit="10"/>
<path d="M16.7617 14.9092L40.2723 25.8337" stroke="#101C3F" stroke-width="0.516129" stroke-miterlimit="10"/>
<path d="M3.979 25.8329L16.7615 14.9084L3.979 3.97852" stroke="#101C3F" stroke-width="0.516129" stroke-miterlimit="10"/>
<path d="M16.7617 14.9084L40.2723 3.97852" stroke="#101C3F" stroke-width="0.516129" stroke-miterlimit="10"/>
<path d="M3.97944 7.70009C6.03456 7.70009 7.70058 6.03407 7.70058 3.97895C7.70058 1.92383 6.03456 0.257812 3.97944 0.257812C1.92432 0.257812 0.258301 1.92383 0.258301 3.97895C0.258301 6.03407 1.92432 7.70009 3.97944 7.70009Z" fill="#101C3F" stroke="#101C3F" stroke-width="0.516129" stroke-miterlimit="10"/>
<path d="M40.2714 7.70009C42.3266 7.70009 43.9926 6.03407 43.9926 3.97895C43.9926 1.92383 42.3266 0.257812 40.2714 0.257812C38.2163 0.257812 36.5503 1.92383 36.5503 3.97895C36.5503 6.03407 38.2163 7.70009 40.2714 7.70009Z" fill="#101C3F" stroke="#101C3F" stroke-width="0.516129" stroke-miterlimit="10"/>
<path d="M3.97944 29.5546C6.03456 29.5546 7.70058 27.8886 7.70058 25.8334C7.70058 23.7783 6.03456 22.1123 3.97944 22.1123C1.92432 22.1123 0.258301 23.7783 0.258301 25.8334C0.258301 27.8886 1.92432 29.5546 3.97944 29.5546Z" fill="#101C3F" stroke="#101C3F" stroke-width="0.516129" stroke-miterlimit="10"/>
<path d="M40.2714 29.5546C42.3266 29.5546 43.9926 27.8886 43.9926 25.8334C43.9926 23.7783 42.3266 22.1123 40.2714 22.1123C38.2163 22.1123 36.5503 23.7783 36.5503 25.8334C36.5503 27.8886 38.2163 29.5546 40.2714 29.5546Z" fill="#0B64DD" stroke="#101C3F" stroke-width="0.516129" stroke-miterlimit="10"/>
<path d="M16.7622 18.6298C18.8173 18.6298 20.4833 16.9638 20.4833 14.9086C20.4833 12.8535 18.8173 11.1875 16.7622 11.1875C14.707 11.1875 13.041 12.8535 13.041 14.9086C13.041 16.9638 14.707 18.6298 16.7622 18.6298Z" fill="#48EFCF" stroke="#101C3F" stroke-width="0.516129" stroke-miterlimit="10"/>
<path d="M60.2581 16.167V45.0177C60.2581 47.1835 52.4549 48.9459 42.8256 48.9459C33.1963 48.9459 25.3877 47.1835 25.3877 45.0177V16.167C25.3877 14.0065 33.2016 12.2441 42.8256 12.2441C52.4496 12.2441 60.2581 14.0065 60.2581 16.167Z" fill="#101C3F" stroke="#101C3F" stroke-width="0.516129" stroke-miterlimit="10"/>
<path d="M60.2582 14.9088C60.2582 17.0799 52.4549 18.8369 42.8256 18.8369C33.1963 18.8369 25.3931 17.0799 25.3931 14.9088C25.3931 12.7377 33.2069 10.9912 42.8256 10.9912C52.4443 10.9912 60.2582 12.7483 60.2582 14.9088Z" fill="#0B64DD" stroke="#101C3F" stroke-width="0.516129" stroke-miterlimit="10"/>
<path d="M60.2582 14.9082V24.5694C60.2582 26.7405 52.4549 28.4975 42.8256 28.4975C33.1963 28.4975 25.3931 26.7405 25.3931 24.5694V14.9082C25.3931 17.0793 33.2069 18.8364 42.8256 18.8364C52.4443 18.8364 60.2582 17.0793 60.2582 14.9082Z" fill="white" stroke="#101C3F" stroke-width="0.516129" stroke-miterlimit="10"/>
<path d="M60.2582 24.5703V34.2315C60.2582 36.4026 52.4549 38.1597 42.8256 38.1597C33.1963 38.1597 25.3931 36.4026 25.3931 34.2315V24.5703C25.3931 26.7414 33.2069 28.4985 42.8256 28.4985C52.4443 28.4985 60.2582 26.7414 60.2582 24.5703Z" fill="white" stroke="#101C3F" stroke-width="0.516129" stroke-miterlimit="10"/>
<path d="M60.2582 34.0938V43.7549C60.2582 45.926 52.4549 47.6831 42.8256 47.6831C33.1963 47.6831 25.3931 45.926 25.3931 43.7549V34.0938C25.3931 36.2649 33.2069 38.0219 42.8256 38.0219C52.4443 38.0219 60.2582 36.2649 60.2582 34.0938Z" fill="white" stroke="#101C3F" stroke-width="0.516129" stroke-miterlimit="10"/>
<path d="M28.8333 22.8453C29.3903 22.8453 29.8419 22.3937 29.8419 21.8367C29.8419 21.2797 29.3903 20.8281 28.8333 20.8281C28.2762 20.8281 27.8247 21.2797 27.8247 21.8367C27.8247 22.3937 28.2762 22.8453 28.8333 22.8453Z" fill="#0B64DD"/>
<path d="M32.8459 23.6246C33.403 23.6246 33.8546 23.173 33.8546 22.616C33.8546 22.0589 33.403 21.6074 32.8459 21.6074C32.2889 21.6074 31.8374 22.0589 31.8374 22.616C31.8374 23.173 32.2889 23.6246 32.8459 23.6246Z" fill="#0B64DD"/>
<path d="M28.8333 32.5914C29.3903 32.5914 29.8419 32.1398 29.8419 31.5828C29.8419 31.0257 29.3903 30.5742 28.8333 30.5742C28.2762 30.5742 27.8247 31.0257 27.8247 31.5828C27.8247 32.1398 28.2762 32.5914 28.8333 32.5914Z" fill="#0B64DD"/>
<path d="M32.8459 33.3717C33.403 33.3717 33.8546 32.9201 33.8546 32.3631C33.8546 31.806 33.403 31.3545 32.8459 31.3545C32.2889 31.3545 31.8374 31.806 31.8374 32.3631C31.8374 32.9201 32.2889 33.3717 32.8459 33.3717Z" fill="#0B64DD"/>
<path d="M28.8333 42.1197C29.3903 42.1197 29.8419 41.6681 29.8419 41.1111C29.8419 40.5541 29.3903 40.1025 28.8333 40.1025C28.2762 40.1025 27.8247 40.5541 27.8247 41.1111C27.8247 41.6681 28.2762 42.1197 28.8333 42.1197Z" fill="#0B64DD"/>
<path d="M32.8459 42.9049C33.403 42.9049 33.8546 42.4533 33.8546 41.8963C33.8546 41.3393 33.403 40.8877 32.8459 40.8877C32.2889 40.8877 31.8374 41.3393 31.8374 41.8963C31.8374 42.4533 32.2889 42.9049 32.8459 42.9049Z" fill="#0B64DD"/>
</svg>
